:version 1.10
:name ASF
:units
  mass 1
  length 1
  angle deg
:documentation
  ASF file generated by Kaydara
:root
  axis xyz
  order  tx ty tz rx ry rz
  position 0 0 0
  orientation 0 0 0
:bonedata
  begin
    id 1
    name lfemurDummy
    direction 0.61522 -0.761478 0.204097
    length 5.68318
    axis 0 -0 0 xyz
  end
  begin
    id 2
    name lfemur
    direction 0.34202 -0.939693 -5.84747e-008
    length 16.9147
    axis 0 -0 20 xyz
    dof rx ry rz
    limits( -inf , inf )
( -inf , inf )
( -inf , inf )

  end
  begin
    id 3
    name ltibia
    direction 0.34202 -0.939693 1.20839e-009
    length 18.0532
    axis 0 -0 20 xyz
    dof rz ry rx
    limits( -inf , inf )
( -inf , inf )
( -inf , inf )

  end
  begin
    id 4
    name lfoot
    direction 0.0841971 -0.23133 0.969225
    length 5.23822
    axis -90 7.62852e-016 20 xyz
    dof ry rx rz
    limits( -inf , inf )
( -inf , inf )
( -inf , inf )

  end
  begin
    id 5
    name ltoes
    direction 0 0 0
    length 0
    axis 0 0 0 xyz
    dof rz ry rx
    limits( -inf , inf )
( -inf , inf )
( -inf , inf )

  end
  begin
    id 6
    name rfemurDummy
    direction -0.625247 -0.75382 0.202044
    length 5.74091
    axis 0 -0 0 xyz
  end
  begin
    id 7
    name rfemur
    direction -0.34202 -0.939693 -1.47013e-008
    length 16.4922
    axis 0 -0 -20 xyz
    dof rx ry rz
    limits( -inf , inf )
( -inf , inf )
( -inf , inf )

  end
  begin
    id 8
    name rtibia
    direction -0.34202 -0.939693 -7.74345e-010
    length 18.2421
    axis 0 -0 -20 xyz
    dof rz ry rx
    limits( -inf , inf )
( -inf , inf )
( -inf , inf )

  end
  begin
    id 9
    name rfoot
    direction -0.124331 -0.341598 0.931586
    length 5.45787
    axis -90 -7.62852e-016 -20 xyz
    dof ry rx rz
    limits( -inf , inf )
( -inf , inf )
( -inf , inf )

  end
  begin
    id 10
    name rtoes
    direction 0 0 0
    length 0
    axis 0 0 0 xyz
    dof rz ry rx
    limits( -inf , inf )
( -inf , inf )
( -inf , inf )

  end
  begin
    id 11
    name lowerbackDummy
    direction 0 0 0
    length 0
    axis 0 -0 0 xyz
  end
  begin
    id 12
    name lowerback
    direction -0.0218484 0.994884 -0.0986304
    length 4.45607
    axis 0 -0 0 xyz
    dof rx ry rz
    limits( -inf , inf )
( -inf , inf )
( -inf , inf )

  end
  begin
    id 13
    name upperback
    direction -0.00973057 0.999717 -0.0217111
    length 4.47449
    axis 0 -0 0 xyz
    dof rx ry rz
    limits( -inf , inf )
( -inf , inf )
( -inf , inf )

  end
  begin
    id 14
    name thorax
    direction -0.000928171 0.999699 0.0245198
    length 4.50973
    axis 0 -0 0 xyz
    dof rx ry rz
    limits( -inf , inf )
( -inf , inf )
( -inf , inf )

  end
  begin
    id 15
    name rclavicle
    direction -0.9009 0.425937 -0.0834055
    length 7.28587
    axis 0 -0 0 xyz
    dof rx ry rz
    limits( -inf , inf )
( -inf , inf )
( -inf , inf )

  end
  begin
    id 16
    name rhumerus
    direction -1 -2.23604e-007 -1.42637e-007
    length 13.5704
    axis 180 30 90 xyz
    dof rx ry rz
    limits( -inf , inf )
( -inf , inf )
( -inf , inf )

  end
  begin
    id 17
    name rradius
    direction -1 5.68281e-008 -4.4952e-007
    length 8.06782
    axis 180 30 90 xyz
    dof rz ry rx
    limits( -inf , inf )
( -inf , inf )
( -inf , inf )

  end
  begin
    id 18
    name rwrist
    direction -1 1.51393e-007 1.38143e-007
    length 4.03391
    axis -90 -90 0 xyz
    dof rz rx ry
    limits( -inf , inf )
( -inf , inf )
( -inf , inf )

  end
  begin
    id 19
    name rthumb
    direction 0 0 0
    length 0
    axis 0 0 0 xyz
    dof ry rx rz
    limits( -inf , inf )
( -inf , inf )
( -inf , inf )

  end
  begin
    id 20
    name rhand
    direction -1 -3.34077e-007 -5.59631e-007
    length 1.29744
    axis -90 -90 0 xyz
    dof ry rx rz
    limits( -inf , inf )
( -inf , inf )
( -inf , inf )

  end
  begin
    id 21
    name rfingers
    direction 0 0 0
    length 0
    axis 0 0 0 xyz
    dof rz ry rx
    limits( -inf , inf )
( -inf , inf )
( -inf , inf )

  end
  begin
    id 22
    name lclavicle
    direction 0.940017 0.332249 -0.0773232
    length 8.29589
    axis 0 -0 0 xyz
    dof rx ry rz
    limits( -inf , inf )
( -inf , inf )
( -inf , inf )

  end
  begin
    id 23
    name lhumerus
    direction 1 7.41158e-008 -1.44768e-008
    length 12.0042
    axis 180 -30 -90 xyz
    dof rx ry rz
    limits( -inf , inf )
( -inf , inf )
( -inf , inf )

  end
  begin
    id 24
    name lradius
    direction 1 -1.32972e-007 3.10821e-007
    length 8.1902
    axis 180 -30 -90 xyz
    dof rz ry rx
    limits( -inf , inf )
( -inf , inf )
( -inf , inf )

  end
  begin
    id 25
    name lwrist
    direction 1 3.08957e-007 4.01394e-007
    length 4.09509
    axis -90 90 0 xyz
    dof rz rx ry
    limits( -inf , inf )
( -inf , inf )
( -inf , inf )

  end
  begin
    id 26
    name lthumb
    direction 0 0 0
    length 0
    axis 0 0 0 xyz
    dof ry rx rz
    limits( -inf , inf )
( -inf , inf )
( -inf , inf )

  end
  begin
    id 27
    name lhand
    direction 1 -1.64125e-007 -6.99514e-007
    length 1.37229
    axis -90 90 0 xyz
    dof ry rx rz
    limits( -inf , inf )
( -inf , inf )
( -inf , inf )

  end
  begin
    id 28
    name lfingers
    direction 0 0 0
    length 0
    axis 0 0 0 xyz
    dof rz ry rx
    limits( -inf , inf )
( -inf , inf )
( -inf , inf )

  end
  begin
    id 29
    name lowerneck
    direction -0.030798 0.998024 0.0547665
    length 3.93918
    axis 0 -0 0 xyz
    dof rx ry rz
    limits( -inf , inf )
( -inf , inf )
( -inf , inf )

  end
  begin
    id 30
    name upperneck
    direction 0.0531588 0.996611 -0.0627736
    length 3.95491
    axis 0 -0 0 xyz
    dof rx ry rz
    limits( -inf , inf )
( -inf , inf )
( -inf , inf )

  end
  begin
    id 31
    name head
    direction 0 0 0
    length 0
    axis 0 0 0 xyz
    dof rx ry rz
    limits( -inf , inf )
( -inf , inf )
( -inf , inf )

  end
:hierarchy
  begin
    root lfemurDummy rfemurDummy lowerbackDummy
    lfemurDummy lfemur
    lfemur ltibia
    ltibia lfoot
    lfoot ltoes
    rfemurDummy rfemur
    rfemur rtibia
    rtibia rfoot
    rfoot rtoes
    lowerbackDummy lowerback
    lowerback upperback
    upperback thorax
    thorax rclavicle lclavicle lowerneck
    rclavicle rhumerus
    rhumerus rradius
    rradius rwrist
    rwrist rthumb rhand
    rhand rfingers
    lclavicle lhumerus
    lhumerus lradius
    lradius lwrist
    lwrist lthumb lhand
    lhand lfingers
    lowerneck upperneck
    upperneck head
  end

:SAMPLES-PER-SECOND 30
:FULLY-SPECIFIED
:DEGREES
1
root  14.78439992 40.11244586 -3.781733175 -1.54901123 -79.58139801 8.026977539
lowerback  14.8597002 3.985790014 -3.66260004
upperback  5.704209805 4.331580162 -2.869080067
thorax  -2.317159891 2.014889956 -1.659119964
lowerneck  2.156080008 5.749680042 -3.48168993
upperneck  7.077799797 7.455339909 1.91494
head  1.635400057 3.620349884 1.22142005
lclavicle  0 -9.442270133e-015 7.951389973e-016
lhumerus  18.13909912 -11.26889992 75.02079773
lradius  2.322249417e-031 -2.660075503e-031 131.1210022
lwrist  -7.062250077e-031 -0 6.062600136
lhand  -1.496451383e-031 -27.76390076 20.11240005
lfingers  90 7.125020027 -90
lthumb  89.89689403 5.08795885 91.16245106
rclavicle  0 -9.442270133e-015 7.951389973e-016
rhumerus  31.94860077 21.70149994 -80.21820068
rradius  -2.054947487e-031 2.871590998e-031 125.5879974
rwrist  7.062250077e-031 -0 0.4613839984
rhand  -7.920061211e-032 -33.2840004 9.303460121
rfingers  -90 -7.125020027 -90
rthumb  -92.93752616 -24.25625642 -97.11982154
rfemur  -32.68619919 0.07348699868 12.76070023
rtibia  -0 0 67.49440002
rfoot  -4.453559211e-032 -7.651460171 -4.384860039
rtoes  5.373923086 19.29304026 -105.8922705
lfemur  -32.20470047 5.288109779 -13.30080032
ltibia  -0 0 52.37329865
lfoot  4.468464675e-032 -8.9625597 -4.110030174
ltoes  -4.250644065 -19.5611806 -102.515957
2
root  14.78439992 40.11244586 -3.781733175 -1.54901123 -79.58139801 8.026977539
lowerback  14.8597002 3.985790014 -3.66260004
upperback  5.704209805 4.331580162 -2.869080067
thorax  -2.317159891 2.014889956 -1.659119964
lowerneck  2.156080008 5.749680042 -3.48168993
upperneck  7.077799797 7.455339909 1.91494
head  1.635400057 3.620349884 1.22142005
lclavicle  0 -9.442270133e-015 7.951389973e-016
lhumerus  18.13909912 -11.26889992 75.02079773
lradius  2.322249417e-031 -2.660075503e-031 131.1210022
lwrist  -7.062250077e-031 -0 6.062600136
lhand  -1.496451383e-031 -27.76390076 20.11240005
lfingers  90 7.125020027 -90
lthumb  89.89689403 5.08795885 91.16245106
rclavicle  0 -9.442270133e-015 7.951389973e-016
rhumerus  31.94860077 21.70149994 -80.21820068
rradius  -2.054947487e-031 2.871590998e-031 125.5879974
rwrist  7.062250077e-031 -0 0.4613839984
rhand  -7.920061211e-032 -33.2840004 9.303460121
rfingers  -90 -7.125020027 -90
rthumb  -92.93752616 -24.25625642 -97.11982154
rfemur  -32.68619919 0.07348699868 12.76070023
rtibia  -0 0 67.49440002
rfoot  -4.453559211e-032 -7.651460171 -4.384860039
rtoes  5.373923086 19.29304026 -105.8922705
lfemur  -32.20470047 5.288109779 -13.30080032
ltibia  -0 0 52.37329865
lfoot  4.468464675e-032 -8.9625597 -4.110030174
ltoes  -4.250644065 -19.5611806 -102.515957
3
root  14.87682222 40.30822093 -3.894244592 -3.856994629 -78.46060181 10.49401855
lowerback  15.43770027 3.648020029 -4.380489826
upperback  5.94633007 3.735640049 -2.904829979
thorax  -2.409559965 1.702149987 -1.221729994
lowerneck  1.86421001 5.709229946 -3.29727006
upperneck  6.577950001 7.437520027 1.688830018
head  1.54076004 3.622760057 1.118510008
lclavicle  0 -9.442270133e-015 7.951389973e-016
lhumerus  18.24279976 -11.15610027 74.94740295
lradius  2.334573542e-031 -2.649266014e-031 131.3869934
lwrist  -7.062250077e-031 -3.531125038e-031 6.827529907
lhand  -1.496451383e-031 -27.76390076 20.11240005
lfingers  90 7.125020027 -90
lthumb  89.89689403 5.08795885 91.16245106
rclavicle  0 -9.442270133e-015 7.951389973e-016
rhumerus  32.08140182 21.40439987 -80.07589722
rradius  -2.088435721e-031 2.847328621e-031 126.2590027
rwrist  3.531125038e-031 -3.531125038e-031 -1.401260018
rhand  -7.920061211e-032 -33.2840004 9.303460121
rfingers  -90 -7.125020027 -90
rthumb  -92.93752616 -24.25625642 -97.11982154
rfemur  -33.95679855 -1.290189981 11.75479984
rtibia  -0 0 68.1812973
rfoot  -4.425564761e-032 -4.159770012 -2.795219898
rtoes  5.373923086 19.29304026 -105.8922705
lfemur  -31.79089928 4.526820183 -13.36450005
ltibia  -0 0 50.70460129
lfoot  8.904055593e-032 -7.503330231 -6.540699959
ltoes  -4.250644065 -19.5611806 -102.515957
4
root  14.96764506 40.47710989 -4.006933227 -4.591003418 -77.31629944 11.31500244
lowerback  16.09280014 3.334880114 -4.880770206
upperback  6.179820061 3.205430031 -2.727730036
thorax  -2.538269997 1.424909949 -0.6893590093
lowerneck  1.560449958 5.588850021 -3.461329937
upperneck  6.07945013 7.305160046 1.597309947
head  1.434980035 3.562540054 1.115300059
lclavicle  0 -9.442270133e-015 7.951389973e-016
lhumerus  18.45269966 -11.27820015 75.0089035
lradius  2.335544916e-031 -2.648409708e-031 131.4080048
lwrist  -7.062250077e-031 1.765562519e-031 6.715889931
lhand  -1.496451383e-031 -27.76390076 20.11240005
lfingers  90 7.125020027 -90
lthumb  89.89689403 5.08795885 91.16245106
rclavicle  0 -9.442270133e-015 7.951389973e-016
rhumerus  32.21900177 21.00530052 -79.71350098
rradius  -2.108559308e-031 2.832458593e-031 126.6650009
rwrist  7.062250077e-031 -3.531125038e-031 -2.449160099
rhand  -7.920061211e-032 -33.2840004 9.303460121
rfingers  -90 -7.125020027 -90
rthumb  -92.93752616 -24.25625642 -97.11982154
rfemur  -34.97669983 -2.447819948 11.02250004
rtibia  -0 0 68.5664978
rfoot  -4.414344103e-032 -0.8069530129 -1.534129977
rtoes  5.373923086 19.29304026 -105.8922705
lfemur  -31.30249977 3.569499969 -13.09840012
ltibia  -0 0 49.05989838
lfoot  -0 -6.294410229 -8.828479767
ltoes  -4.250644065 -19.5611806 -102.515957
5
root  15.04706736 40.63488818 -4.108710927 -4.09197998 -76.25930023 10.87200928
lowerback  16.75749969 3.25383997 -4.77132988
upperback  6.205289841 3.063580036 -2.707190037
thorax  -2.854170084 1.357169986 -0.7344170213
lowerneck  1.830469966 5.218830109 -2.748409986
upperneck  5.686979771 6.817719936 1.410159945
head  1.305860043 3.336519957 0.9213209748
lclavicle  0 -9.442270133e-015 7.951389973e-016
lhumerus  18.75270081 -12.37779999 74.99539948
lradius  2.326564181e-031 -2.656302533e-031 131.2140045
lwrist  -1.412450015e-030 -1.765562519e-031 6.934810162
lhand  -1.496451383e-031 -27.76390076 20.11240005
lfingers  90 7.125020027 -90
lthumb  89.89689403 5.08795885 91.16245106
rclavicle  0 -9.442270133e-015 7.951389973e-016
rhumerus  31.72380066 19.88059998 -79.66790009
rradius  -2.11300574e-031 2.829143118e-031 126.7549973
rwrist  7.062250077e-031 -0 -2.038330078
rhand  -7.920061211e-032 -33.2840004 9.303460121
rfingers  -90 -7.125020027 -90
rthumb  -92.93752616 -24.25625642 -97.11982154
rfemur  -35.79980087 -3.361490011 10.5302
rtibia  -0 0 68.67790222
rfoot  -4.671422247e-032 2.120559931 -0.004860309884
rtoes  5.373923086 19.29304026 -105.8922705
lfemur  -30.76749992 2.398420095 -12.52280045
ltibia  -0 0 47.58810043
lfoot  -0 -5.332429886 -10.77200031
ltoes  -4.250644065 -19.5611806 -102.515957
